<?xml version="1.0" standalone="no"?>
<!DOCTYPE svg PUBLIC "-//W3C//DTD SVG 20010904//EN"
 "http://www.w3.org/TR/2001/REC-SVG-20010904/DTD/svg10.dtd">
<svg version="1.0" xmlns="http://www.w3.org/2000/svg"
 width="550.000000pt" height="550.000000pt" viewBox="0 0 550.000000 550.000000"
 preserveAspectRatio="xMidYMid meet">
<metadata>
Created by potrace 1.14, written by Peter Selinger 2001-2017
</metadata>
<g transform="translate(0.000000,550.000000) scale(0.100000,-0.100000)"
fill="#000000" stroke="none">
<path d="M0 2750 l0 -2750 2750 0 2750 0 0 2750 0 2750 -2750 0 -2750 0 0
-2750z m3921 2129 c44 -23 42 -100 -2 -114 -19 -6 -23 -19 -89 -250 -17 -60
-33 -117 -36 -125 -9 -27 10 1 122 173 96 148 110 175 103 196 -17 43 34 80
83 60 57 -23 58 -101 1 -114 -25 -5 -40 -29 -127 -198 l-98 -192 140 145 c119
122 141 150 141 176 1 38 22 57 61 57 87 0 94 -114 8 -125 -21 -2 -49 -31
-131 -138 -58 -74 -103 -136 -102 -138 2 -2 53 29 114 68 91 59 111 76 111 96
0 60 81 86 119 38 27 -35 26 -49 -5 -80 -18 -19 -31 -24 -50 -20 -20 5 -41 -8
-129 -85 -99 -87 -109 -99 -185 -230 l-81 -139 17 -47 c10 -27 20 -95 23 -157
l6 -109 275 -73 c151 -41 305 -83 341 -94 124 -37 231 -143 269 -267 40 -130
47 -96 -265 -1261 -192 -715 -294 -1081 -312 -1113 -35 -65 -120 -144 -187
-175 -67 -31 -158 -48 -218 -41 -25 3 -275 67 -555 143 -279 75 -519 136 -533
136 -14 -1 -261 -64 -549 -142 -288 -77 -538 -140 -556 -140 -155 0 -314 96
-383 231 -12 24 -151 523 -308 1109 -285 1063 -285 1065 -282 1151 3 73 9 97
37 153 39 79 110 155 177 189 27 13 171 57 319 96 149 40 294 79 323 87 l52
15 0 87 c0 154 39 251 140 352 36 36 87 76 113 89 106 51 100 51 887 51 l735
0 76 133 c71 123 79 141 106 264 25 111 28 135 17 144 -23 19 -17 76 8 93 12
9 30 16 39 16 29 0 69 -40 69 -67 0 -29 -25 -63 -47 -63 -7 0 -13 -1 -14 -2
-6 -20 -23 -275 -18 -270 4 4 41 77 82 163 65 138 72 158 61 174 -19 26 -17
52 6 75 22 22 51 26 81 9z"/>
<path d="M3860 4845 c-18 -22 -1 -50 31 -50 20 0 24 5 24 30 0 23 -5 31 -21
33 -11 2 -27 -4 -34 -13z"/>
<path d="M3674 4816 c-11 -28 1 -51 28 -54 31 -4 48 29 28 53 -16 19 -49 19
-56 1z"/>
<path d="M4049 4784 c-16 -20 -1 -48 29 -52 27 -4 49 33 31 54 -15 19 -43 18
-60 -2z"/>
<path d="M3778 4568 l-76 -163 21 -23 c11 -12 24 -19 28 -15 8 9 109 356 105
360 -1 2 -37 -70 -78 -159z"/>
<path d="M4203 4663 c-21 -8 -16 -60 6 -66 40 -10 68 32 39 61 -13 13 -24 14
-45 5z"/>
<path d="M3671 4644 c0 -11 3 -14 6 -6 3 7 2 16 -1 19 -3 4 -6 -2 -5 -13z"/>
<path d="M3901 4484 c-94 -144 -101 -157 -84 -169 15 -11 20 -9 36 17 26 43
158 308 153 308 -2 0 -50 -70 -105 -156z"/>
<path d="M3652 4546 c-14 -76 -15 -96 -3 -96 8 0 26 149 18 156 -2 2 -9 -25
-15 -60z"/>
<path d="M4015 4420 c-104 -105 -127 -132 -115 -140 8 -5 20 -10 26 -10 6 0
55 57 109 128 54 70 102 133 108 140 26 33 -10 1 -128 -118z"/>
<path d="M4277 4489 c-22 -13 -22 -58 -1 -66 39 -15 73 46 37 65 -12 7 -25 7
-36 1z"/>
<path d="M3601 4354 c-12 -19 -21 -39 -21 -44 0 -8 322 -199 343 -203 5 -1 22
19 37 45 28 46 28 46 7 52 -12 3 -33 6 -47 6 -35 0 -195 93 -245 141 -23 21
-44 39 -47 39 -3 0 -15 -16 -27 -36z"/>
<path d="M4087 4312 c-92 -61 -109 -83 -54 -68 19 5 171 136 157 135 -3 0 -49
-30 -103 -67z"/>
<path d="M3535 4240 c-15 -29 -15 -30 12 -35 106 -23 192 -73 267 -157 l54
-59 21 37 c12 20 20 39 17 41 -6 6 -348 203 -352 203 -2 0 -10 -13 -19 -30z"/>
<path d="M2077 3742 c-33 -72 -77 -189 -77 -202 0 -25 30 -6 41 25 13 35 13
35 75 35 61 0 63 0 69 -31 7 -29 29 -48 42 -35 14 13 -93 266 -112 266 -7 0
-24 -26 -38 -58z m77 -90 c7 -21 4 -22 -38 -22 -25 0 -46 2 -46 5 0 2 10 30
22 62 l21 58 17 -40 c9 -22 20 -50 24 -63z"/>
<path d="M2077 3362 c-10 -10 -17 -25 -17 -33 0 -8 -10 -19 -22 -24 -30 -14
-42 -37 -34 -68 8 -32 46 -45 82 -28 23 10 24 9 14 -10 -6 -11 -22 -24 -36
-29 -13 -5 -24 -12 -24 -15 0 -3 37 -5 83 -5 l82 1 -37 20 c-21 11 -38 26 -38
34 0 12 4 13 18 4 26 -16 69 -4 77 22 11 34 -3 68 -30 75 -15 4 -25 13 -25 24
0 45 -62 66 -93 32z"/>
<path d="M2687 3149 c-58 -14 -91 -34 -135 -84 -67 -76 -80 -185 -34 -274 l22
-41 -38 15 c-57 24 -143 21 -194 -7 -142 -78 -172 -289 -58 -407 62 -63 93
-76 190 -76 75 0 91 3 138 29 51 28 97 72 134 126 l17 25 0 -41 c1 -75 -58
-204 -120 -261 -30 -27 -98 -58 -172 -77 -68 -18 -77 -23 -77 -42 0 -12 58
-14 394 -14 390 0 394 0 389 20 -3 12 -16 22 -32 25 -131 26 -222 77 -274 153
-33 46 -67 152 -66 202 l0 35 17 -25 c29 -45 92 -100 145 -127 44 -23 65 -28
132 -28 66 0 86 4 116 22 56 35 90 73 117 132 21 45 24 64 20 120 -7 98 -46
162 -132 217 -38 24 -148 25 -192 2 l-31 -17 23 57 c29 70 30 115 4 185 -30
81 -97 136 -188 156 -60 12 -62 12 -115 0z"/>
<path d="M1090 3102 c-35 -28 -16 -47 19 -21 23 17 32 19 50 10 28 -15 27 -54
-3 -105 -29 -50 -41 -102 -27 -111 16 -9 131 26 131 40 0 11 -10 11 -50 0 -27
-7 -52 -10 -54 -6 -3 4 9 31 25 61 33 61 37 109 11 133 -25 22 -74 21 -102 -1z"/>
<path d="M1224 2753 c-4 -10 -15 -37 -24 -59 -10 -23 -15 -46 -11 -50 10 -16
92 -77 96 -73 6 7 45 100 45 108 0 4 -23 27 -50 50 -44 37 -51 40 -56 24z"/>
<path d="M3930 2423 l1 -218 34 40 c86 98 112 216 67 301 -20 40 -74 94 -93
94 -5 0 -9 -91 -9 -217z"/>
<path d="M3307 1994 c-4 -4 8 -14 25 -23 43 -22 49 -43 10 -31 -40 11 -72 -11
-72 -49 0 -31 16 -51 41 -51 12 0 19 -9 21 -27 2 -17 13 -33 29 -42 24 -13 29
-13 53 2 16 11 26 27 26 42 0 17 6 25 18 25 46 0 59 69 17 96 -22 14 -27 14
-55 1 -29 -15 -29 -15 -19 4 5 11 21 25 35 31 13 6 24 15 24 20 0 9 -143 11
-153 2z"/>
<path d="M3270 1613 c1 -10 22 -70 48 -133 38 -93 51 -115 67 -115 16 0 29 22
67 115 26 63 47 123 47 133 2 32 -26 17 -42 -23 l-15 -40 -57 0 -57 0 -15 40
c-16 40 -43 55 -43 23z m160 -94 c0 -6 -10 -33 -22 -62 l-22 -51 -22 50 c-32
70 -31 74 21 74 25 0 45 -5 45 -11z"/>
<path d="M3942 1548 c-19 -19 -16 -194 3 -202 42 -16 66 32 45 93 -6 20 -17
55 -24 79 -9 33 -15 39 -24 30z"/>
<path d="M3890 1193 c0 -47 -11 -73 -31 -73 -23 0 -33 -16 -14 -24 26 -10 4
-36 -41 -47 -25 -6 -47 -15 -50 -20 -9 -15 65 -10 95 6 43 22 79 110 67 160
-9 34 -26 32 -26 -2z"/>
</g>
</svg>
